<svg width="24" height="48" viewBox="0 0 24 48" fill="none" xmlns="http://www.w3.org/2000/svg">
<path d="M23.9935 23.8167C23.9516 23.2224 23.7168 22.6586 23.3247 22.2167L4.54721 0.883774C4.08429 0.357118 3.43602 0.0409338 2.74584 0.00283929C2.05565 -0.0333505 1.37851 0.211407 0.864361 0.683778C0.350215 1.1571 0.0400504 1.81995 0.00372485 2.52565C-0.0326007 3.2323 0.206775 3.92467 0.668762 4.45037L17.8815 23.9995L0.668762 43.5496C0.206775 44.0753 -0.0335321 44.7686 0.00372485 45.4743C0.0400504 46.181 0.349283 46.8438 0.864361 47.3162C1.37851 47.7886 2.05658 48.0343 2.74677 47.9962C3.43695 47.959 4.08523 47.6419 4.54814 47.1162L23.3257 25.7833C23.7997 25.2471 24.041 24.5376 23.9935 23.8167Z" fill="#4874F6"/>
</svg>
