<svg width="21" height="20" viewBox="0 0 21 20" fill="none" xmlns="http://www.w3.org/2000/svg">
<path d="M13 6.00003H15.87C17.33 6.00003 18.67 6.98003 18.95 8.42003C19.26 10.06 18.21 11.53 16.73 11.9L18.26 13.43C20.03 12.52 21.21 10.61 20.96 8.42003C20.68 5.86003 18.37 4.00003 15.79 4.00003H13C12.45 4.00003 12 4.45003 12 5.00003C12 5.55003 12.45 6.00003 13 6.00003ZM2.51 0.510029C2.12 0.120029 1.49 0.120029 1.1 0.510029C0.710003 0.900029 0.710003 1.53003 1.1 1.92003L3.74 4.56003C1.97 5.47003 0.790003 7.38003 1.04 9.57003C1.32 12.14 3.63 14 6.21 14H9C9.55 14 10 13.55 10 13C10 12.45 9.55 12 9 12H6.13C4.67 12 3.33 11.02 3.05 9.58003C2.74 7.94003 3.8 6.47003 5.27 6.10003L7.39 8.22003C7.16 8.41003 7 8.68003 7 9.00003C7 9.55003 7.45 10 8 10H9.17L18.07 18.9C18.46 19.29 19.09 19.29 19.48 18.9C19.87 18.51 19.87 17.88 19.48 17.49L2.51 0.510029ZM13 8.00003L14.71 9.71003C14.89 9.53003 15 9.28003 15 9.00003C15 8.45003 14.55 8.00003 14 8.00003H13Z" fill="#B3BBCC"/>
</svg>
