<svg width="177" height="36" viewBox="0 0 177 36" fill="none" xmlns="http://www.w3.org/2000/svg">
<g clip-path="url(#clip0_207_11)">
<path d="M11.7279 11.4585C11.6566 11.8864 11.5298 12.2351 11.3317 12.4966C11.0464 12.8611 10.6819 13.1464 10.2065 13.3524C9.75479 13.5584 9.27141 13.6615 8.73256 13.6615C8.05107 13.6615 7.52806 13.5347 7.21902 13.2573C6.87827 12.9958 6.71979 12.6471 6.71979 12.2192C6.71979 11.8151 6.83073 11.4585 7.10015 11.1891C7.34581 10.8959 7.84504 10.6978 8.57407 10.5314C9.66762 10.3095 10.4204 10.151 10.8008 10.0084C11.2129 9.88158 11.5219 9.76271 11.7834 9.64385C11.7913 10.5948 11.7755 11.1891 11.7279 11.4585ZM7.82919 4.35835C8.15408 4.081 8.75633 3.93837 9.57253 3.93837C10.4442 3.93837 11.0306 4.07308 11.3555 4.32666C11.6883 4.59608 11.8706 4.93683 11.8706 5.32512C11.8706 5.8085 11.6645 6.15717 11.2366 6.41867C10.9593 6.57715 10.2699 6.71186 9.20801 6.8228C7.12393 7.09223 5.54699 7.31411 4.46929 7.56769C3.39952 7.79749 2.53577 8.13031 1.9256 8.55822C1.33128 8.95444 0.871671 9.52498 0.515078 10.2461C0.16641 10.9593 0 11.6883 0 12.457C0 13.8041 0.491305 14.969 1.47392 15.9357C2.43275 16.8866 3.92252 17.3859 5.99075 17.3859C7.21902 17.3859 8.30464 17.2036 9.27141 16.8391C10.2223 16.4667 11.1178 15.9199 11.934 15.1512L12.2589 16.9104H18.9628V16.5855C18.3843 16.1735 18.107 15.5791 18.107 14.8422V6.45036C18.107 5.18248 18.0436 4.35835 17.9247 3.93837C17.7583 3.24103 17.481 2.67048 17.1402 2.22672C16.7757 1.78296 16.2527 1.38675 15.5712 1.01431C14.9214 0.681488 14.0973 0.412063 13.1385 0.237728C12.1638 0.0792428 11.0781 0 9.84988 0C8.58199 0 7.35373 0.118864 6.17301 0.348668C4.9923 0.586397 3.94629 0.966762 3.08254 1.52939C2.40898 1.96522 1.91768 2.48822 1.58486 3.09839C1.27581 3.70856 1.05393 4.54061 0.966762 5.57077H7.24279C7.29034 5.03984 7.48052 4.64363 7.82919 4.35835Z" fill="black"/>
<path d="M33.5039 17.0927C34.0506 17.7108 34.2884 18.6617 34.2884 19.8979C34.2884 20.6982 34.1933 21.3797 33.9476 21.9899C33.7178 22.5684 33.3771 23.0121 32.9571 23.2736C32.5212 23.5431 32.0379 23.6778 31.5069 23.6778C30.6987 23.6778 30.0806 23.3846 29.5734 22.7586C29.0663 22.1484 28.8048 21.1737 28.8048 19.787C28.8048 18.5904 29.0821 17.6949 29.6051 17.0689C30.1519 16.4667 30.7938 16.1576 31.602 16.1576C32.3469 16.1576 32.9967 16.4825 33.5039 17.0927ZM28.9712 33.6941V26.5464C29.4545 27.109 29.8428 27.521 30.1836 27.7825C30.5322 28.0441 30.9602 28.258 31.499 28.4403C32.0299 28.5829 32.648 28.6701 33.385 28.6701C35.4691 28.6701 37.2362 27.9014 38.6626 26.3562C40.0731 24.7713 40.7942 22.6635 40.7942 19.9851C40.7942 18.3527 40.5089 16.8708 39.9225 15.5158C39.3361 14.2003 38.4803 13.1781 37.3551 12.457C36.2219 11.7517 34.9619 11.3951 33.5593 11.3951C32.2994 11.3951 31.2058 11.6646 30.2628 12.2193C29.3119 12.774 28.6542 13.4713 28.3055 14.2796V11.8706H22.4653V33.6941H28.9712Z" fill="black"/>
<path d="M43.9718 28.7968V6.35529H52.8866L56.825 20.3813L60.7792 6.35529H69.6861V28.7968H62.998V16.221L59.3846 28.7968H54.2575L50.5965 16.221V28.7968H43.9718Z" fill="black"/>
<path d="M18.2734 20.5952H1.18863V22.3386H18.2734V20.5952Z" fill="black"/>
<path d="M87.1671 6.31567C92.1356 6.31567 94.9408 8.70088 94.9408 12.5442C94.9408 14.652 93.4827 16.6965 91.462 17.1719C94.0137 17.6791 96.0106 19.6681 96.0106 22.4495C96.0106 26.3245 93.0627 28.7889 88.015 28.7889H77.9908V6.31567H87.1671ZM91.9613 12.5442C91.9613 10.1589 90.1941 8.86729 87.0799 8.86729H80.9386V16.221H87.0799C90.1941 16.221 91.9613 14.9294 91.9613 12.5442ZM93.031 22.4495C93.031 19.9771 91.0658 18.6617 87.9278 18.6617H80.9386V26.2373H87.9278C91.0658 26.2373 93.031 24.9219 93.031 22.4495Z" fill="black"/>
<path d="M102.54 12.7423V15.2147C103.245 14.0102 105.179 12.354 108.317 12.354C109.3 12.354 109.941 12.4412 110.504 12.6314V15.3811C109.886 15.1037 109.101 14.9294 108.119 14.9294C104.838 14.9294 102.532 17.5682 102.532 20.4843V28.789H99.6399V12.7423H102.54Z" fill="black"/>
<path d="M116.733 7.24282C116.733 8.33637 115.916 9.15257 114.799 9.15257C113.705 9.15257 112.889 8.33637 112.889 7.24282C112.889 6.14927 113.705 5.33307 114.799 5.33307C115.924 5.33307 116.733 6.14927 116.733 7.24282ZM113.365 28.8206V12.7423H116.257V28.8206H113.365Z" fill="black"/>
<path d="M119.958 20.7616C119.958 15.9595 123.349 12.346 127.898 12.346C130.814 12.346 132.779 13.7486 133.595 15.1195V5.61041H136.488V28.7889H133.595V26.4037C132.779 27.7825 130.822 29.1851 127.898 29.1851C123.357 29.1851 119.958 25.5637 119.958 20.7616ZM133.651 20.7616C133.651 17.4255 131.408 14.8977 128.151 14.8977C124.926 14.8977 122.795 17.4255 122.795 20.7616C122.795 24.0978 124.926 26.6256 128.151 26.6256C131.408 26.6256 133.651 24.1057 133.651 20.7616Z" fill="black"/>
<path d="M141.282 30.3025H144.23C144.563 32.0141 145.997 33.5039 148.889 33.5039C151.805 33.5039 153.826 31.5387 153.826 28.4006V26.1818C153.01 27.5527 151.053 28.9553 148.129 28.9553C143.58 28.9553 140.188 25.3894 140.188 20.6745C140.188 15.9358 143.58 12.3381 148.129 12.3381C151.045 12.3381 153.01 13.7407 153.826 15.1116V12.7264H156.718V28.4086C156.718 32.8382 153.493 35.9842 148.889 35.9842C144.285 36 141.845 33.3375 141.282 30.3025ZM153.882 20.6824C153.882 17.4017 151.639 14.9056 148.382 14.9056C145.157 14.9056 143.025 17.4017 143.025 20.6824C143.025 23.963 145.157 26.4592 148.382 26.4592C151.631 26.4592 153.882 23.963 153.882 20.6824Z" fill="black"/>
<path d="M160.419 20.7617C160.419 15.9358 163.787 12.3461 168.47 12.3461C173.153 12.3461 176.497 15.9358 176.497 20.7617C176.497 21.1262 176.497 21.5462 176.442 21.9424H163.311C163.621 24.6921 165.61 26.7366 168.47 26.7366C170.657 26.7366 172.369 25.7302 172.963 24.4068H175.911C175.039 27.1882 172.155 29.1772 168.478 29.1772C163.779 29.1852 160.419 25.5875 160.419 20.7617ZM168.47 14.7867C165.578 14.7867 163.613 16.8074 163.311 19.5809H173.661C173.32 16.7837 171.355 14.7867 168.47 14.7867Z" fill="black"/>
</g>
<defs>
<clipPath id="clip0_207_11">
<rect width="176.49" height="36" fill="white"/>
</clipPath>
</defs>
</svg>
